<svg width="170" height="24" viewBox="0 0 170 24" fill="none" xmlns="http://www.w3.org/2000/svg">
<path d="M0.000107679 2.3071C-0.00265914 2.03736 0.0479197 1.76973 0.148944 1.5196C0.249968 1.26948 0.399439 1.0418 0.588759 0.849666C0.778079 0.65753 1.00351 0.504725 1.25209 0.400043C1.50067 0.295362 1.76749 0.240868 2.0372 0.239698H2.48656C3.47516 0.239698 4.04435 0.749058 4.61354 1.43819L16.237 16.4793V2.18725C16.237 1.65484 16.4485 1.14423 16.8249 0.767752C17.2013 0.391276 17.7118 0.179774 18.2441 0.179774C18.7765 0.179774 19.287 0.391276 19.6634 0.767752C20.0398 1.14423 20.2513 1.65484 20.2513 2.18725V21.7227C20.2584 21.9847 20.2136 22.2455 20.1194 22.4901C20.0252 22.7346 19.8835 22.9581 19.7024 23.1475C19.5214 23.337 19.3046 23.4887 19.0645 23.5938C18.8245 23.699 18.566 23.7555 18.304 23.7602H18.0943C17.1357 23.7602 16.5366 23.2508 15.9674 22.5317L4.01439 7.04116V21.7827C4.01439 22.0463 3.96247 22.3073 3.86161 22.5509C3.76074 22.7944 3.6129 23.0157 3.42652 23.2022C3.24014 23.3886 3.01887 23.5364 2.77535 23.6373C2.53183 23.7382 2.27084 23.7901 2.00725 23.7901C1.74367 23.7901 1.48267 23.7382 1.23915 23.6373C0.995631 23.5364 0.774363 23.3886 0.587982 23.2022C0.401602 23.0157 0.253761 22.7944 0.152893 22.5509C0.0520247 22.3073 0.000107656 22.0463 0.000107679 21.7827V2.3071ZM24.8947 21.5729V2.42695C24.8858 1.89143 25.0884 1.374 25.4586 0.986949C25.8287 0.599902 26.3365 0.374461 26.8719 0.359548H40.4425C40.9272 0.359548 41.392 0.55211 41.7347 0.894871C42.0774 1.23763 42.2699 1.70252 42.2699 2.18725C42.2699 2.67199 42.0774 3.13688 41.7347 3.47964C41.392 3.8224 40.9272 4.01496 40.4425 4.01496H28.9389V10.0674H38.9447C39.1846 10.0674 39.4223 10.1146 39.644 10.2065C39.8657 10.2983 40.0671 10.433 40.2368 10.6027C40.4065 10.7724 40.5411 10.9739 40.633 11.1956C40.7248 11.4174 40.7721 11.6551 40.7721 11.8951C40.7721 12.1351 40.7248 12.3728 40.633 12.5945C40.5411 12.8162 40.4065 13.0177 40.2368 13.1874C40.0671 13.3572 39.8657 13.4918 39.644 13.5836C39.4223 13.6755 39.1846 13.7228 38.9447 13.7228H28.9389V19.9549H40.5923C40.8323 19.9549 41.0699 20.0022 41.2916 20.0941C41.5133 20.1859 41.7148 20.3206 41.8845 20.4903C42.0542 20.66 42.1888 20.8615 42.2806 21.0832C42.3724 21.305 42.4197 21.5426 42.4197 21.7827C42.4197 22.0227 42.3724 22.2603 42.2806 22.4821C42.1888 22.7038 42.0542 22.9053 41.8845 23.075C41.7148 23.2448 41.5133 23.3794 41.2916 23.4712C41.0699 23.5631 40.8323 23.6104 40.5923 23.6104H26.9018C26.3664 23.6192 25.849 23.4166 25.462 23.0464C25.0751 22.6761 24.8497 22.1682 24.8347 21.6328C24.8947 21.6328 24.8947 21.6029 24.8947 21.5729ZM45.056 2.99624C44.9473 2.73976 44.8864 2.46561 44.8762 2.18725C44.8919 1.64417 45.1207 1.12909 45.5131 0.753419C45.9056 0.377745 46.4301 0.171673 46.9732 0.179774C47.4286 0.177689 47.8725 0.322234 48.2394 0.592031C48.6062 0.861828 48.8766 1.24255 49.0103 1.67789L54.3727 17.7078L59.6152 1.79774C59.9448 0.838947 60.6338 0.179774 61.6823 0.179774H61.9819C62.457 0.181938 62.918 0.342074 63.2922 0.634982C63.6664 0.927889 63.9326 1.33694 64.0489 1.79774L69.2915 17.7078L74.6239 1.70785C74.7581 1.281 75.0253 0.908269 75.3864 0.644123C75.7475 0.379977 76.1836 0.238265 76.631 0.239698C77.1587 0.230025 77.6689 0.429263 78.0504 0.794029C78.432 1.15879 78.654 1.65955 78.6681 2.18725C78.6445 2.47648 78.5736 2.75988 78.4584 3.0262L71.5682 22.292C71.2087 23.3107 70.4298 23.9999 69.4412 23.9999H69.0518C68.0632 23.9999 67.3143 23.3707 66.9548 22.292L61.7722 7.10109L56.5895 22.292C56.2301 23.3707 55.4512 23.9999 54.4626 23.9999H54.0731C53.0845 23.9999 52.3356 23.3707 51.9461 22.292L45.056 2.99624ZM81.6638 2.42695C81.6607 2.16103 81.7102 1.89712 81.8096 1.65045C81.909 1.40379 82.0562 1.17925 82.2428 0.98982C82.4295 0.800386 82.6517 0.649803 82.8969 0.546767C83.142 0.443731 83.4051 0.390282 83.671 0.38951H97.2716C97.7642 0.38951 98.2366 0.585229 98.585 0.933609C98.9333 1.28199 99.129 1.75449 99.129 2.24718C99.129 2.73986 98.9333 3.21237 98.585 3.56075C98.2366 3.90913 97.7642 4.10485 97.2716 4.10485H85.738V10.4569H95.7738C96.2664 10.4569 96.7388 10.6526 97.0871 11.001C97.4354 11.3493 97.6311 11.8219 97.6311 12.3145C97.6311 12.8072 97.4354 13.2797 97.0871 13.6281C96.7388 13.9765 96.2664 14.1722 95.7738 14.1722H85.738V21.7827C85.738 22.323 85.5234 22.8412 85.1414 23.2233C84.7594 23.6054 84.2412 23.8201 83.701 23.8201C83.1607 23.8201 82.6425 23.6054 82.2605 23.2233C81.8785 22.8412 81.6638 22.323 81.6638 21.7827V2.42695ZM98.4699 20.9737L107.098 1.70785C107.29 1.21288 107.627 0.7877 108.066 0.488221C108.504 0.188742 109.023 0.0289877 109.554 0.0299619H109.764C110.932 0.0299619 111.711 0.659172 112.19 1.70785L120.818 20.9737C120.97 21.2382 121.053 21.5373 121.058 21.8426C121.066 22.093 121.024 22.3424 120.934 22.5764C120.845 22.8104 120.71 23.0243 120.537 23.2056C120.364 23.3869 120.157 23.5319 119.927 23.6323C119.698 23.7326 119.451 23.7863 119.2 23.7901H119.14C118.182 23.7901 117.523 23.2208 117.133 22.3519L115.246 18.0074H103.952L102.005 22.5018C101.863 22.8857 101.605 23.216 101.267 23.4468C100.928 23.6776 100.527 23.7976 100.118 23.7901C99.871 23.7945 99.6261 23.7497 99.3971 23.6583C99.1681 23.5668 98.9597 23.4306 98.7839 23.2577C98.6082 23.0847 98.4687 22.8784 98.3736 22.6508C98.2786 22.4233 98.2298 22.1791 98.2303 21.9325V21.9025C98.2097 21.5753 98.2936 21.25 98.4699 20.9737ZM113.688 14.4119L109.614 5.00372L105.51 14.4119H113.688ZM124.143 2.33706C124.143 1.79367 124.356 1.27186 124.737 0.884829C125.119 0.497797 125.637 0.276759 126.18 0.269662H126.63C127.618 0.269662 128.188 0.779022 128.757 1.46816L140.38 16.5093V2.21722C140.408 1.70377 140.632 1.22058 141.005 0.86704C141.379 0.513494 141.873 0.316462 142.387 0.316462C142.902 0.316462 143.396 0.513494 143.769 0.86704C144.143 1.22058 144.366 1.70377 144.395 2.21722V21.7527C144.402 22.0147 144.357 22.2755 144.263 22.52C144.168 22.7646 144.027 22.9881 143.846 23.1775C143.665 23.367 143.448 23.5186 143.208 23.6238C142.968 23.7289 142.709 23.7855 142.447 23.7901H142.208C141.249 23.7901 140.65 23.2808 140.081 22.5617L128.128 7.07112V21.8126C128.1 22.3261 127.876 22.8092 127.503 23.1628C127.129 23.5163 126.635 23.7134 126.121 23.7134C125.606 23.7134 125.112 23.5163 124.738 23.1628C124.365 22.8092 124.141 22.3261 124.113 21.8126L124.143 2.33706ZM148.019 12.0748V12.0149C148.019 5.51308 152.992 0 160.002 0C163.477 0 165.814 0.838947 167.941 2.36703C168.196 2.56102 168.403 2.80992 168.548 3.09522C168.694 3.38052 168.773 3.69489 168.78 4.01496C168.779 4.55508 168.564 5.07285 168.182 5.45477C167.8 5.8367 167.283 6.05161 166.743 6.0524C166.283 6.02933 165.843 5.86153 165.485 5.573C163.867 4.32401 161.865 3.67773 159.823 3.7453C155.539 3.7453 152.273 7.4906 152.273 11.955V12.0149C152.273 16.8089 155.419 20.3145 160.182 20.3145C162.199 20.3371 164.171 19.7181 165.814 18.5467V14.2022H161.231C160.995 14.2061 160.76 14.1636 160.54 14.0769C160.321 13.9902 160.12 13.861 159.951 13.6969C159.781 13.5327 159.645 13.3367 159.551 13.1201C159.457 12.9035 159.407 12.6705 159.403 12.4344C159.411 11.9549 159.607 11.4976 159.949 11.1613C160.291 10.825 160.751 10.6366 161.231 10.6366H167.701C168.241 10.6294 168.762 10.8367 169.15 11.213C169.537 11.5894 169.76 12.104 169.768 12.6441V18.9063C169.794 19.4273 169.672 19.9449 169.418 20.4004C169.164 20.8559 168.787 21.231 168.33 21.483C165.885 23.1243 163.007 24.0005 160.062 23.9999C152.783 24.0298 148.019 18.8463 148.019 12.0748Z" fill="#222222"/>
</svg>
