<?xml version="1.0" standalone="no"?><!DOCTYPE svg PUBLIC "-//W3C//DTD SVG 1.1//EN" "http://www.w3.org/Graphics/SVG/1.1/DTD/svg11.dtd"><svg t="1562675223444" class="icon" viewBox="0 0 1024 1024" version="1.1" xmlns="http://www.w3.org/2000/svg" p-id="12660" xmlns:xlink="http://www.w3.org/1999/xlink" width="128" height="128"><defs><style type="text/css"></style></defs><path d="M938.666667 362.709333c25.898667 19.434667 42.666667 50.368 42.666666 85.226667v128.128A106.282667 106.282667 0 0 1 938.666667 661.333333V768c0 58.858667-47.893333 106.666667-106.624 106.666667H149.290667A106.709333 106.709333 0 0 1 42.666667 768V256c0-58.858667 47.893333-106.666667 106.624-106.666667h682.752A106.709333 106.709333 0 0 1 938.666667 256v106.709333zM853.333333 341.333333v-85.333333c0-11.733333-9.578667-21.333333-21.290666-21.333333H149.290667C137.664 234.666667 128 244.309333 128 256v512c0 11.733333 9.578667 21.333333 21.290667 21.333333h682.752c11.626667 0 21.290667-9.642667 21.290666-21.333333v-85.333333h-191.786666A106.730667 106.730667 0 0 1 554.666667 576.064v-128.128A106.581333 106.581333 0 0 1 661.546667 341.333333H853.333333z m-213.333333 106.602667v128.128c0 11.712 9.6 21.269333 21.546667 21.269333h212.906666a21.269333 21.269333 0 0 0 21.546667-21.269333v-128.128c0-11.712-9.6-21.269333-21.546667-21.269333h-212.906666a21.269333 21.269333 0 0 0-21.546667 21.269333zM725.333333 554.666667a42.666667 42.666667 0 1 1 0-85.333334 42.666667 42.666667 0 0 1 0 85.333334z" fill="" p-id="12661"></path></svg>