<?xml version="1.0" standalone="no"?><!DOCTYPE svg PUBLIC "-//W3C//DTD SVG 1.1//EN" "http://www.w3.org/Graphics/SVG/1.1/DTD/svg11.dtd"><svg t="1562676179968" class="icon" viewBox="0 0 1024 1024" version="1.1" xmlns="http://www.w3.org/2000/svg" p-id="20322" xmlns:xlink="http://www.w3.org/1999/xlink" width="128" height="128"><defs><style type="text/css"></style></defs><path d="M753.142857 636C688.914286 580.114286 605.028571 546.285714 513.142857 546.285714s-175.771429 33.828571-240.114286 89.828572a9.257143 9.257143 0 0 0-0.914285 12.8l41.142857 49.028571c3.314286 3.885714 9.142857 4.342857 13.028571 1.028572C376.114286 655.085714 441.485714 628.571429 513.142857 628.571429s137.028571 26.514286 186.857143 70.285714c3.885714 3.314286 9.714286 2.857143 13.028571-1.028572l41.142858-49.028571c3.2-3.771429 2.742857-9.485714-1.028572-12.8z m134.171429-160.114286C785.942857 391.428571 655.542857 340.571429 513.142857 340.571429s-272.8 50.857143-374.285714 135.314285a9.2 9.2 0 0 0-1.142857 12.914286l41.142857 49.028571c3.2 3.885714 9.028571 4.342857 12.8 1.142858C278.857143 466.514286 390.971429 422.857143 513.142857 422.857143s234.285714 43.657143 321.371429 116.114286c3.885714 3.2 9.6 2.742857 12.8-1.142858l41.142857-49.028571c3.2-3.885714 2.742857-9.714286-1.142857-12.914286z m133.371428-158.857143C881.942857 203.2 704.342857 134.857143 510.857143 134.857143c-192.228571 0-368.685714 67.428571-507.085714 179.885714a9.142857 9.142857 0 0 0-1.257143 13.028572l41.142857 49.028571c3.2 3.771429 8.914286 4.342857 12.685714 1.257143C180.571429 277.371429 338.628571 217.142857 510.857143 217.142857c173.485714 0 332.571429 61.142857 457.142857 163.085714 3.885714 3.2 9.6 2.628571 12.8-1.257142l41.142857-49.028572c3.314286-3.885714 2.742857-9.714286-1.257143-12.914286zM438.857143 816a73.142857 73.142857 0 1 0 146.285714 0 73.142857 73.142857 0 1 0-146.285714 0z" p-id="20323"></path></svg>