<svg id="Layer_1" data-name="Layer 1" xmlns="http://www.w3.org/2000/svg" viewBox="0 0 985 254"><defs><style>.cls-1{fill:#4cccf4;}.cls-2{fill:#ffb1cc;}.cls-3{fill:#e1e600;}.cls-4{fill:#43b800;}.cls-5{fill:#e1a000;}.cls-6{fill:#4088cd;}.cls-7{fill:#009148;}.cls-8{fill:#ff7500;}.cls-9{fill:#9757ab;}.cls-10{fill:#111;}</style></defs><title>Newfang_FinalLogo_Full</title><path class="cls-1" d="M116.09,75.63h0a29.54,29.54,0,0,1,0-28.06h0L45.29,178.68h0a29.5,29.5,0,1,1,51.91,28.06h0l45-83.31Z"/><path class="cls-2" d="M310.35,75.62a29.5,29.5,0,1,1-51.91-28.06h0l-45,83.23,25.87,47.36h0a29.52,29.52,0,0,1,.2,28.58h0L310.36,75.63Z"/><path class="cls-3" d="M187.62,178.68l25.86-47.89L168,47.56h0a29.54,29.54,0,0,1,0,28.06h0l-25.83,47.8,45.23,82.78h0a29.49,29.49,0,0,1,.18-27.53Z"/><path class="cls-4" d="M168,75.62a29.51,29.51,0,0,1-51.94,0h0l26.12,47.8L168,75.63Z"/><path class="cls-5" d="M213.48,130.79l-25.86,47.89h0a29.5,29.5,0,0,1,51.71-.52h0Z"/><circle class="cls-6" cx="71.3" cy="192.62" r="29.5"/><circle class="cls-7" cx="142.06" cy="61.62" r="29.5"/><circle class="cls-8" cx="213.62" cy="192.62" r="29.5"/><circle class="cls-9" cx="284.38" cy="61.62" r="29.5"/><path class="cls-10" d="M333.5,112.6a6.83,6.83,0,0,1,6.8-6.9h1.5c3.3,0,5.2,1.7,7.1,4l38.8,50.2V112.2a6.7,6.7,0,0,1,13.4,0v65.2a6.62,6.62,0,0,1-6.5,6.8h-.7c-3.2,0-5.2-1.7-7.1-4.1l-39.9-51.7v49.2a6.7,6.7,0,1,1-13.4,0v-65Zm83.1,64.3V113a6.79,6.79,0,0,1,6.6-6.9h45.3a6.1,6.1,0,1,1,0,12.2H430.1v20.2h33.4a6.1,6.1,0,1,1,0,12.2H430.1v20.8H469a6.1,6.1,0,1,1,0,12.2H423.3a6.79,6.79,0,0,1-6.9-6.6C416.6,177.1,416.6,177,416.6,176.9Zm67.3-62a7.64,7.64,0,0,1-.6-2.7,6.9,6.9,0,0,1,7-6.7h0a7.08,7.08,0,0,1,6.8,5L515,164l17.5-53.1c1.1-3.2,3.4-5.4,6.9-5.4h1a7.15,7.15,0,0,1,6.9,5.4L564.8,164l17.8-53.4a7,7,0,0,1,6.7-4.9,6.68,6.68,0,0,1,6.8,6.5,8.87,8.87,0,0,1-.7,2.8l-23,64.3c-1.2,3.4-3.8,5.7-7.1,5.7H564c-3.3,0-5.8-2.1-7-5.7l-17.3-50.7-17.3,50.7c-1.2,3.6-3.8,5.7-7.1,5.7H514c-3.3,0-5.8-2.1-7.1-5.7ZM606.1,113a6.72,6.72,0,0,1,6.7-6.8h45.4a6.2,6.2,0,0,1,0,12.4H619.7v21.2h33.5a6.2,6.2,0,0,1,0,12.4H619.7v25.4a6.8,6.8,0,0,1-13.6,0Zm56.1,61.9L691,110.6a8.78,8.78,0,0,1,8.2-5.6h.7c3.9,0,6.5,2.1,8.1,5.6l28.8,64.3a6,6,0,0,1,.8,2.9,6.3,6.3,0,0,1-6.2,6.5h-.2c-3.2,0-5.4-1.9-6.7-4.8L718.2,165H680.5L674,180a6.59,6.59,0,0,1-6.3,4.3,6.19,6.19,0,0,1-6.3-6.2V178a5.16,5.16,0,0,1,.8-3.1ZM713,153l-13.6-31.4L685.7,153Zm34.9-40.3a6.89,6.89,0,0,1,6.8-6.9h1.5c3.3,0,5.2,1.7,7.1,4L802.1,160V112.3a6.71,6.71,0,0,1,13.4,0v65.2a6.62,6.62,0,0,1-6.5,6.8h-.8c-3.2,0-5.2-1.7-7.1-4.1l-39.9-51.7v49.2a6.71,6.71,0,0,1-13.4,0Zm79.7,32.5V145c0-21.7,16.6-40.1,40-40.1,11.6,0,19.4,2.8,26.5,7.9a7.11,7.11,0,0,1,2.8,5.5,6.81,6.81,0,0,1-6.8,6.8,7.28,7.28,0,0,1-4.2-1.6,29.34,29.34,0,0,0-18.9-6.1c-14.3,0-25.2,12.5-25.2,27.4v.2c0,16,10.5,27.7,26.4,27.7a31.77,31.77,0,0,0,18.8-5.9V152.3H871.7a6,6,0,0,1-6.1-5.9,6.1,6.1,0,0,1,6.1-6h21.6a6.81,6.81,0,0,1,6.9,6.7V168a9.31,9.31,0,0,1-4.8,8.6,49.51,49.51,0,0,1-27.6,8.4c-24.3.1-40.2-17.2-40.2-39.8Z"/></svg>